<mxfile host="app.diagrams.net" modified="2024-01-17T22:09:07.163Z" agent="Mozilla/5.0 (Windows NT 10.0; Win64; x64) AppleWebKit/537.36 (KHTML, like Gecko) Chrome/120.0.0.0 Safari/537.36" version="22.1.20" etag="A77a2DX63qFBFsDJQIsr" type="github">
  <diagram name="Page-1" id="ATtCY9A6D_lvjavTq-yf">
    <mxGraphModel>
      <root>
        <mxCell id="0" />
        <mxCell id="1" parent="0" />
      </root>
    </mxGraphModel>
  </diagram>
</mxfile>
